<?xml version="1.0" encoding="UTF-8" standalone="no"?>
<!DOCTYPE svg PUBLIC "-//W3C//DTD SVG 1.1//EN" "http://www.w3.org/Graphics/SVG/1.1/DTD/svg11.dtd">
<svg width="100%" height="100%" viewBox="0 0 8334 2942" version="1.1" xmlns="http://www.w3.org/2000/svg" xmlns:xlink="http://www.w3.org/1999/xlink" xml:space="preserve" xmlns:serif="http://www.serif.com/" style="fill-rule:evenodd;clip-rule:evenodd;stroke-linejoin:round;stroke-miterlimit:2;">
    <path d="M1270.15,539.58L1270.15,2402.08L528.257,1992.26L399.317,847.887L1270.15,539.58Z" style="fill:rgb(200,41,52);"/>
    <path d="M1270.15,539.58L1270.15,2402.08L2012.04,1992.26L2140.98,847.887L1270.15,539.58Z" style="fill:rgb(174,38,50);"/>
    <g>
        <g>
            <clipPath id="_clip1">
                <path d="M1924.91,1058.1L1925.08,1058.4C1927.46,1062.77 1933.64,1072.41 1942.08,1072.92L1980.62,1040.73L2036.81,993.754L1968.52,1018.59L1921.78,1035.58C1921.74,1035.61 1921.73,1035.64 1921.72,1035.68C1917.62,1043.53 1922.52,1053.72 1924.91,1058.1Z"/>
            </clipPath>
            <g clip-path="url(#_clip1)">
                <rect x="1899.31" y="972.917" width="158.333" height="120.833" style="fill:rgb(255,255,254);"/>
            </g>
        </g>
        <g>
            <clipPath id="_clip2">
                <path d="M1570.15,1090.74L1895.25,1055.02C1896.64,1060.38 1899.06,1065.99 1901.35,1070.29C1904.42,1076.02 1907.78,1080.49 1911.34,1083.66L1694.61,1334.21C1695.62,1334.87 1696.64,1335.54 1697.67,1336.2C1701.8,1338.84 1705.98,1341.36 1710.22,1343.75L1936.82,1081.82C1926.2,1080.93 1918.45,1069.15 1915.44,1063.79L1915.23,1063.41C1912.17,1057.96 1905.91,1045.3 1911.16,1035.54C1911.16,1035.48 1911.19,1035.46 1911.21,1035.41L1573.49,1072.16C1572.26,1076.49 1570.88,1080.89 1570.58,1084.96C1570.45,1086.8 1570.31,1088.74 1570.15,1090.74Z"/>
            </clipPath>
            <g clip-path="url(#_clip2)">
                <rect x="1549.31" y="1014.58" width="408.333" height="350" style="fill:rgb(255,255,254);"/>
            </g>
        </g>
        <g>
            <clipPath id="_clip3">
                <path d="M1057.71,1660.48L1057.67,1660.42L1057.65,1660.44C1057.68,1660.44 1057.69,1660.46 1057.71,1660.48Z"/>
            </clipPath>
            <g clip-path="url(#_clip3)">
                <rect x="1036.81" y="1639.58" width="41.725" height="41.729" style="fill:rgb(255,255,254);"/>
            </g>
        </g>
        <g>
            <clipPath id="_clip4">
                <path d="M1279.33,1500.72C1226.03,1500.72 1182.66,1457.45 1182.66,1404.27C1182.66,1351.08 1226.03,1307.81 1279.33,1307.81C1288.05,1307.81 1296.7,1308.98 1305.01,1311.28C1305.37,1311.37 1305.73,1311.47 1306.08,1311.58C1347.21,1323.37 1376,1361.5 1376,1404.27C1376,1457.45 1332.63,1500.72 1279.33,1500.72ZM1690.88,1367.41C1690.56,1367.22 1690.24,1366.99 1689.93,1366.78C1688.51,1365.83 1687.08,1364.85 1685.68,1363.88C1684.59,1363.11 1683.5,1362.35 1682.41,1361.58C1669.53,1352.4 1657.17,1342.16 1645.49,1331.02C1634.76,1320.8 1624.98,1310.01 1615.69,1298.53C1615.68,1298.53 1615.67,1298.54 1615.66,1298.54L1615.6,1298.61L1492.4,1362.8C1469.98,1333.84 1449.03,1293.89 1439.36,1258.31C1438.83,1256.29 1435.39,1243.07 1434.89,1241.04L1552.29,1175.6C1549.06,1163.76 1546.51,1151.74 1544.68,1139.6C1542.63,1125.92 1542.9,1107.18 1543.33,1092.18C1543.4,1090.02 1543.45,1087.92 1543.52,1085.92C1543.53,1085.38 1543.57,1084.84 1543.62,1084.27C1543.65,1083.96 1543.67,1083.64 1543.71,1083.33C1539.67,1078.6 1522.81,1082.18 1502.92,1091.75L1495.87,1096.02L1421.12,1141.3L1410.9,1147.48L1410.75,1147.57C1410.16,1160.52 1409.36,1178 1409.35,1179.8C1409.35,1201.07 1411.38,1221.98 1415.38,1242.27L1399.45,1251.33L1312.72,1300.57C1309.29,1283.85 1306.65,1240.39 1305.86,1211.1L1287.33,1222.33L1237.59,1252.44L1217.06,1264.89L1170.39,1293.15L1168.57,1294.25C1171.35,1322.57 1177.03,1365.75 1180.65,1380.9L1107.61,1427.53L1083.15,1442.64C1079.15,1426.84 1074.51,1377.88 1072.66,1352.33L960.417,1420.32L960.405,1420.33L940.984,1431.3L941.134,1434.15C942.788,1463.35 948.35,1491.7 957.646,1518.56L964.538,1514.67L981.759,1504.87L1074.67,1451.57C1079.55,1465.68 1089.66,1487.67 1096.6,1500.86C1097.05,1501.7 1097.5,1502.54 1097.94,1503.38C1105.42,1517.27 1115.54,1532.65 1125.09,1545.19L1021.44,1592.99L1003.76,1601.92L1002.8,1602.41C1019.4,1624.07 1038.95,1643.57 1061.04,1660.42L1181.5,1606.74L1196.29,1600.25L1198.51,1599.27C1175.75,1584.07 1148.79,1559.6 1134.46,1543.3L1149.68,1535.62L1240.2,1494.12C1250.56,1506.25 1280.89,1538.96 1298.49,1555.45L1300.79,1554.44L1351.38,1532.27L1373.06,1522.79L1427.68,1498.84L1447.57,1490.12C1427.5,1475.55 1393,1447.39 1379.54,1432.58L1450.35,1396.8L1468.48,1387.65L1482.73,1380.45C1483.67,1381.55 1484.62,1382.63 1485.6,1383.71C1500.65,1400.68 1537.17,1429.13 1555.9,1442.64L1568.68,1437.04L1653.69,1399.78L1661.58,1396.33C1680.16,1385.25 1692.24,1373.43 1690.88,1367.41Z"/>
            </clipPath>
            <g clip-path="url(#_clip4)">
                <rect x="920.147" y="1060.42" width="791.667" height="620.833" style="fill:rgb(255,255,254);"/>
            </g>
        </g>
        <g>
            <clipPath id="_clip5">
                <path d="M1070.15,1514.58L966.692,1541.46L931.721,1550.55L761.817,1659.97L777.596,1689.58L964.117,1606L1070.15,1514.58Z"/>
            </clipPath>
            <g clip-path="url(#_clip5)">
                <rect x="740.981" y="1493.75" width="350" height="216.667" style="fill:rgb(255,255,254);"/>
            </g>
        </g>
        <g>
            <clipPath id="_clip6">
                <path d="M515.981,1539.58L674.314,1465.81L656.114,1431.25L515.981,1539.58Z"/>
            </clipPath>
            <g clip-path="url(#_clip6)">
                <rect x="495.147" y="1410.42" width="200" height="150" style="fill:rgb(255,255,254);"/>
            </g>
        </g>
        <g>
            <clipPath id="_clip7">
                <path d="M1111.16,1307.21C1111.96,1306.78 1112.07,1305.49 1111.22,1305.04C1058.06,1276.12 1004.9,1247.2 951.743,1218.28C949.581,1217.11 947.41,1215.94 945.252,1214.77C944.489,1214.34 943.722,1214.69 943.397,1215.46C943.26,1215.82 943.118,1216.16 942.972,1216.5L665.981,1427.77L685.622,1464.58L865.735,1381.8C873.193,1380.38 881.831,1380.42 890.772,1382.33C900.11,1384.33 907.335,1388.85 913.264,1394.33C919.847,1400.38 924.847,1407.6 929.418,1413.8C929.772,1414.22 930.464,1414.32 930.906,1414.04C994.252,1374.04 1026.5,1356.31 1090.82,1318.22C1097.45,1314.29 1104.38,1310.88 1111.16,1307.21Z"/>
            </clipPath>
            <g clip-path="url(#_clip7)">
                <rect x="645.147" y="1193.75" width="487.5" height="291.667" style="fill:rgb(255,255,254);"/>
            </g>
        </g>
        <g>
            <clipPath id="_clip8">
                <path d="M736.814,1960.42L907.647,1899.8L888.902,1864.59L736.814,1960.42Z"/>
            </clipPath>
            <g clip-path="url(#_clip8)">
                <rect x="715.981" y="1843.75" width="212.5" height="137.5" style="fill:rgb(255,255,254);"/>
            </g>
        </g>
        <g>
            <clipPath id="_clip9">
                <path d="M1245.65,1770.73C1251.03,1710.78 1256.42,1650.81 1261.81,1590.86C1261.9,1589.91 1260.78,1589.3 1259.98,1589.73C1253.2,1593.36 1246.56,1597.25 1239.65,1600.61C1172.68,1633.26 1140.23,1650.36 1072.21,1681.15C1071.73,1681.37 1071.43,1681.99 1071.58,1682.52C1074.2,1689.7 1077.4,1697.8 1078.79,1706.57C1080.05,1714.48 1079.81,1722.96 1076.31,1731.81C1072.96,1740.28 1068.23,1747.48 1062.95,1752.9L1045.93,1763.48L895.15,1857.33L914.775,1893.75L1242.29,1778.98L1244.98,1778.04C1245.2,1775.6 1245.43,1773.16 1245.65,1770.73Z"/>
            </clipPath>
            <g clip-path="url(#_clip9)">
                <rect x="874.314" y="1568.75" width="408.333" height="345.833" style="fill:rgb(255,255,254);"/>
            </g>
        </g>
        <g>
            <clipPath id="_clip10">
                <path d="M574.314,1777.08L765.981,1692.2L751.085,1664.58L574.314,1777.08Z"/>
            </clipPath>
            <g clip-path="url(#_clip10)">
                <rect x="553.481" y="1643.75" width="233.333" height="154.167" style="fill:rgb(255,255,254);"/>
            </g>
        </g>
        <g>
            <clipPath id="_clip11">
                <path d="M1304.87,1314.58L1303.48,1315.34C1304.07,1315.48 1304.67,1315.65 1305.24,1315.84C1305.13,1315.41 1304.99,1315 1304.87,1314.58Z"/>
            </clipPath>
            <g clip-path="url(#_clip11)">
                <rect x="1282.65" y="1293.75" width="43.433" height="42.921" style="fill:rgb(255,255,254);"/>
            </g>
        </g>
        <g>
            <clipPath id="_clip12">
                <path d="M1353.5,1423.26C1352.76,1426.28 1351.85,1429.21 1350.78,1432C1350.28,1433.32 1349.77,1434.61 1349.19,1435.89C1336.66,1464.59 1307.91,1483.6 1276.39,1483.6C1271.24,1483.6 1266.1,1483.1 1261.08,1482.11C1259.69,1481.84 1258.31,1481.54 1256.94,1481.19C1254,1480.45 1251.03,1479.51 1248.11,1478.39C1246.39,1477.73 1244.7,1477.02 1243.05,1476.24C1215.26,1463.33 1196.96,1435.04 1196.96,1404.17C1196.96,1399.79 1197.33,1395.43 1198.05,1391.14C1198.34,1389.33 1198.71,1387.52 1199.13,1385.73C1200.46,1380.11 1202.44,1374.6 1205,1369.35C1205.77,1367.79 1206.58,1366.25 1207.44,1364.76C1221.53,1340.29 1248.04,1324.74 1276.39,1324.74C1278.13,1324.74 1279.87,1324.79 1281.61,1324.9C1283.34,1325.02 1285.06,1325.19 1286.77,1325.41C1292.9,1326.2 1298.93,1327.73 1304.7,1329.95C1305.66,1330.32 1306.6,1330.7 1307.53,1331.09C1336.54,1343.51 1355.83,1372.49 1355.83,1404.17C1355.83,1409.6 1355.27,1415.01 1354.16,1420.3C1353.97,1421.29 1353.75,1422.28 1353.5,1423.26ZM1301.11,1318.06C1300.83,1317.97 1300.62,1317.9 1300.39,1317.85L1300.24,1317.81C1292.53,1315.67 1284.5,1314.58 1276.39,1314.58C1227,1314.58 1186.81,1354.77 1186.81,1404.17C1186.81,1453.56 1227,1493.75 1276.39,1493.75C1325.79,1493.75 1365.98,1453.56 1365.98,1404.17C1365.98,1364.43 1339.3,1329.03 1301.11,1318.06Z"/>
            </clipPath>
            <g clip-path="url(#_clip12)">
                <rect x="1165.98" y="1293.75" width="220.833" height="220.833" style="fill:rgb(255,255,254);"/>
            </g>
        </g>
        <g transform="matrix(1,0,0,1,2672.3,1881.25)">
            <rect x="93.75" y="-900" width="65.625" height="900" style="fill-rule:nonzero;"/>
            <path d="M548.438,11.719C473.828,11.719 415.43,-12.695 373.242,-61.523C331.055,-110.352 309.57,-179.883 308.789,-270.117L308.789,-347.461C308.789,-440.43 329.102,-513.379 369.727,-566.309C410.352,-619.238 466.211,-645.703 537.305,-645.703C606.055,-645.703 658.496,-623.242 694.629,-578.32C730.762,-533.398 749.219,-464.648 750,-372.07L750,-311.133L373.242,-311.133L373.242,-275.391C373.242,-202.734 388.77,-146.68 419.824,-107.227C450.879,-67.773 494.727,-48.047 551.367,-48.047C613.867,-48.047 664.453,-70.898 703.125,-116.602L737.109,-73.242C695.703,-16.602 632.813,11.719 548.438,11.719ZM537.305,-584.766C486.133,-584.766 446.777,-566.699 419.238,-530.566C391.699,-494.434 376.563,-441.602 373.828,-372.07L684.961,-372.07L684.961,-389.063C681.836,-519.531 632.617,-584.766 537.305,-584.766Z" style="fill-rule:nonzero;"/>
            <path d="M986.133,-795.703L986.133,-633.984L1094.53,-633.984L1094.53,-575.391L986.133,-575.391L986.133,-154.102C986.133,-119.336 991.309,-93.457 1001.66,-76.465C1012.01,-59.473 1029.3,-50.977 1053.52,-50.977C1064.06,-50.977 1079.69,-52.93 1100.39,-56.836L1102.15,1.758C1087.31,8.398 1066.02,11.719 1038.28,11.719C962.109,11.719 923.047,-40.625 921.094,-145.313L921.094,-575.391L823.242,-575.391L823.242,-633.984L921.094,-633.984L921.094,-795.703L986.133,-795.703Z" style="fill-rule:nonzero;"/>
            <path d="M1553.32,-155.859C1553.32,-183.203 1541.99,-207.129 1519.34,-227.637C1496.68,-248.145 1458.3,-270.605 1404.2,-295.02C1350.1,-319.434 1312.31,-339.746 1290.82,-355.957C1269.34,-372.168 1253.52,-389.844 1243.36,-408.984C1233.2,-428.125 1228.12,-450.781 1228.12,-476.953C1228.12,-525.781 1245.7,-566.113 1280.86,-597.949C1316.02,-629.785 1361.52,-645.703 1417.38,-645.703C1477.54,-645.703 1525.59,-628.711 1561.52,-594.727C1597.46,-560.742 1615.43,-515.82 1615.43,-459.961L1550.39,-459.961C1550.39,-495.898 1538.09,-525.684 1513.48,-549.316C1488.87,-572.949 1456.84,-584.766 1417.38,-584.766C1379.1,-584.766 1348.73,-575 1326.27,-555.469C1303.81,-535.938 1292.58,-510.547 1292.58,-479.297C1292.58,-453.906 1301.17,-433.203 1318.36,-417.188C1335.55,-401.172 1372.66,-379.492 1429.69,-352.148C1488.67,-326.367 1529.3,-305.078 1551.56,-288.281C1573.83,-271.484 1590.62,-252.832 1601.95,-232.324C1613.28,-211.816 1618.94,-187.5 1618.94,-159.375C1618.94,-107.031 1600.78,-65.43 1564.45,-34.57C1528.12,-3.711 1480.27,11.719 1420.9,11.719C1358.01,11.719 1307.13,-5.469 1268.26,-39.844C1229.39,-74.219 1209.96,-118.555 1209.96,-172.852L1275.59,-172.852C1277.54,-133.398 1290.72,-102.832 1315.14,-81.152C1339.55,-59.473 1374.81,-48.633 1420.9,-48.633C1460.74,-48.633 1492.77,-58.398 1516.99,-77.93C1541.21,-97.461 1553.32,-123.438 1553.32,-155.859Z" style="fill-rule:nonzero;"/>
            <path d="M2204.88,-287.109C2204.88,-189.453 2187.79,-115.234 2153.61,-64.453C2119.43,-13.672 2068.55,11.719 2000.98,11.719C1926.37,11.719 1871.09,-20.508 1835.16,-84.961L1832.23,0L1771.88,0L1771.88,-900L1836.33,-900L1836.33,-545.508C1871.88,-612.305 1926.37,-645.703 1999.81,-645.703C2068.16,-645.703 2119.14,-621.582 2152.73,-573.34C2186.33,-525.098 2203.71,-453.125 2204.88,-357.422L2204.88,-287.109ZM2139.84,-346.289C2139.84,-426.758 2127.93,-486.328 2104.1,-525C2080.27,-563.672 2041.21,-583.008 1986.91,-583.008C1914.65,-583.008 1864.45,-544.922 1836.33,-468.75L1836.33,-154.688C1849.61,-121.484 1869.14,-95.801 1894.92,-77.637C1920.7,-59.473 1951.76,-50.391 1988.09,-50.391C2040.04,-50.391 2078.22,-69.238 2102.64,-106.934C2127.05,-144.629 2139.45,-203.32 2139.84,-283.008L2139.84,-346.289Z" style="fill-rule:nonzero;"/>
            <path d="M2330.86,-349.219C2330.86,-440.625 2351.56,-512.891 2392.97,-566.016C2434.38,-619.141 2490.82,-645.703 2562.3,-645.703C2634.18,-645.703 2690.72,-619.531 2731.93,-567.188C2773.14,-514.844 2793.95,-442.773 2794.34,-350.977L2794.34,-283.594C2794.34,-190.625 2773.53,-118.164 2731.93,-66.211C2690.33,-14.258 2634.18,11.719 2563.48,11.719C2492.77,11.719 2436.72,-13.672 2395.31,-64.453C2353.91,-115.234 2332.42,-185.156 2330.86,-274.219L2330.86,-349.219ZM2396.48,-283.594C2396.48,-210.547 2411.23,-153.125 2440.72,-111.328C2470.22,-69.531 2511.13,-48.633 2563.48,-48.633C2616.99,-48.633 2657.91,-68.75 2686.23,-108.984C2714.55,-149.219 2728.91,-206.836 2729.3,-281.836L2729.3,-349.219C2729.3,-422.266 2714.45,-479.785 2684.77,-521.777C2655.08,-563.77 2614.26,-584.766 2562.3,-584.766C2511.91,-584.766 2471.88,-564.258 2442.19,-523.242C2412.5,-482.227 2397.27,-425.781 2396.48,-353.906L2396.48,-283.594Z" style="fill-rule:nonzero;"/>
            <path d="M2919.73,-349.219C2919.73,-440.625 2940.43,-512.891 2981.84,-566.016C3023.24,-619.141 3079.69,-645.703 3151.17,-645.703C3223.05,-645.703 3279.59,-619.531 3320.8,-567.188C3362.01,-514.844 3382.81,-442.773 3383.2,-350.977L3383.2,-283.594C3383.2,-190.625 3362.4,-118.164 3320.8,-66.211C3279.2,-14.258 3223.05,11.719 3152.34,11.719C3081.64,11.719 3025.59,-13.672 2984.18,-64.453C2942.77,-115.234 2921.29,-185.156 2919.73,-274.219L2919.73,-349.219ZM2985.35,-283.594C2985.35,-210.547 3000.1,-153.125 3029.59,-111.328C3059.08,-69.531 3100,-48.633 3152.34,-48.633C3205.86,-48.633 3246.78,-68.75 3275.1,-108.984C3303.42,-149.219 3317.77,-206.836 3318.16,-281.836L3318.16,-349.219C3318.16,-422.266 3303.32,-479.785 3273.63,-521.777C3243.95,-563.77 3203.12,-584.766 3151.17,-584.766C3100.78,-584.766 3060.74,-564.258 3031.05,-523.242C3001.37,-482.227 2986.13,-425.781 2985.35,-353.906L2985.35,-283.594Z" style="fill-rule:nonzero;"/>
            <path d="M3631.06,-795.703L3631.06,-633.984L3739.45,-633.984L3739.45,-575.391L3631.06,-575.391L3631.06,-154.102C3631.06,-119.336 3636.23,-93.457 3646.58,-76.465C3656.93,-59.473 3674.22,-50.977 3698.44,-50.977C3708.98,-50.977 3724.61,-52.93 3745.31,-56.836L3747.07,1.758C3732.23,8.398 3710.94,11.719 3683.2,11.719C3607.03,11.719 3567.97,-40.625 3566.02,-145.313L3566.02,-575.391L3468.16,-575.391L3468.16,-633.984L3566.02,-633.984L3566.02,-795.703L3631.06,-795.703Z" style="fill-rule:nonzero;"/>
            <path d="M3879.49,-42.773C3879.49,-56.836 3883.89,-68.652 3892.68,-78.223C3901.47,-87.793 3913.67,-92.578 3929.3,-92.578C3944.92,-92.578 3957.23,-87.793 3966.21,-78.223C3975.2,-68.652 3979.69,-56.836 3979.69,-42.773C3979.69,-29.102 3975.2,-17.773 3966.21,-8.789C3957.23,0.195 3944.92,4.688 3929.3,4.688C3913.67,4.688 3901.47,0.195 3892.68,-8.789C3883.89,-17.773 3879.49,-29.102 3879.49,-42.773Z" style="fill-rule:nonzero;"/>
            <path d="M4368.16,-48.633C4413.48,-48.633 4448.24,-61.328 4472.46,-86.719C4496.68,-112.109 4509.77,-148.633 4511.72,-196.289L4574.41,-196.289C4571.29,-131.445 4550.59,-80.566 4512.31,-43.652C4474.02,-6.738 4425.98,11.719 4368.16,11.719C4292.77,11.719 4235.84,-12.402 4197.36,-60.645C4158.89,-108.887 4139.26,-180.469 4138.48,-275.391L4138.48,-352.734C4138.48,-449.609 4157.72,-522.656 4196.19,-571.875C4234.67,-621.094 4291.8,-645.703 4367.58,-645.703C4430.47,-645.703 4480.08,-625.879 4516.41,-586.23C4552.73,-546.582 4572.07,-491.211 4574.41,-420.117L4511.72,-420.117C4509.77,-472.461 4496.48,-512.988 4471.88,-541.699C4447.27,-570.41 4412.5,-584.766 4367.58,-584.766C4311.33,-584.766 4270.02,-565.82 4243.65,-527.93C4217.28,-490.039 4204.1,-431.836 4204.1,-353.32L4204.1,-281.25C4204.1,-200 4217.38,-140.918 4243.94,-104.004C4270.51,-67.09 4311.91,-48.633 4368.16,-48.633Z" style="fill-rule:nonzero;"/>
            <path d="M4777.15,-534.375C4795.9,-568.359 4819.63,-595.41 4848.34,-615.527C4877.05,-635.645 4909.96,-645.703 4947.07,-645.703C5057.62,-645.703 5114.26,-572.07 5116.99,-424.805L5116.99,0L5052.54,0L5052.54,-417.773C5052.15,-474.414 5042.19,-516.211 5022.66,-543.164C5003.12,-570.117 4972.46,-583.594 4930.66,-583.594C4896.68,-583.594 4866.11,-570.801 4838.97,-545.215C4811.82,-519.629 4791.21,-484.57 4777.15,-440.039L4777.15,0L4712.11,0L4712.11,-900L4777.15,-900L4777.15,-534.375Z" style="fill-rule:nonzero;"/>
        </g>
        <g>
            <g transform="matrix(1,0,0,1,5047.91,2317.9)">
                <path d="M134.57,-51.953C134.57,-61.068 130.794,-69.043 123.242,-75.879C115.69,-82.715 102.897,-90.202 84.863,-98.34C66.829,-106.478 54.232,-113.249 47.07,-118.652C39.909,-124.056 34.635,-129.948 31.25,-136.328C27.865,-142.708 26.172,-150.26 26.172,-158.984C26.172,-175.26 32.031,-188.704 43.75,-199.316C55.469,-209.928 70.638,-215.234 89.258,-215.234C109.31,-215.234 125.326,-209.57 137.305,-198.242C149.284,-186.914 155.273,-171.94 155.273,-153.32L133.594,-153.32C133.594,-165.299 129.492,-175.228 121.289,-183.105C113.086,-190.983 102.409,-194.922 89.258,-194.922C76.497,-194.922 66.374,-191.667 58.887,-185.156C51.4,-178.646 47.656,-170.182 47.656,-159.766C47.656,-151.302 50.521,-144.401 56.25,-139.063C61.979,-133.724 74.349,-126.497 93.359,-117.383C113.021,-108.789 126.563,-101.693 133.984,-96.094C141.406,-90.495 147.005,-84.277 150.781,-77.441C154.557,-70.605 156.445,-62.5 156.445,-53.125C156.445,-35.677 150.391,-21.81 138.281,-11.523C126.172,-1.237 110.221,3.906 90.43,3.906C69.466,3.906 52.507,-1.823 39.551,-13.281C26.595,-24.74 20.117,-39.518 20.117,-57.617L41.992,-57.617C42.643,-44.466 47.038,-34.277 55.176,-27.051C63.314,-19.824 75.065,-16.211 90.43,-16.211C103.711,-16.211 114.388,-19.466 122.461,-25.977C130.534,-32.487 134.57,-41.146 134.57,-51.953Z" style="fill-rule:nonzero;"/>
                <path d="M251.953,-48.047L253.711,-36.328L256.055,-49.023L299.219,-211.328L317.383,-211.328L360.156,-50.391L363.281,-33.789L365.82,-48.633L402.344,-211.328L424.609,-211.328L372.852,0L354.688,0L308.789,-167.969L307.813,-173.047L307.031,-167.773L261.914,0L243.555,0L192.188,-211.328L214.258,-211.328L251.953,-48.047Z" style="fill-rule:nonzero;"/>
                <path d="M492.578,0L470.703,0L470.703,-211.328L492.578,-211.328L492.578,0ZM467.578,-272.266C467.578,-276.693 468.815,-280.469 471.289,-283.594C473.763,-286.719 477.279,-288.281 481.836,-288.281C486.393,-288.281 489.941,-286.719 492.48,-283.594C495.02,-280.469 496.289,-276.693 496.289,-272.266C496.289,-267.839 495.02,-264.095 492.48,-261.035C489.941,-257.975 486.393,-256.445 481.836,-256.445C477.279,-256.445 473.763,-257.975 471.289,-261.035C468.815,-264.095 467.578,-267.839 467.578,-272.266Z" style="fill-rule:nonzero;"/>
                <path d="M658.203,-51.953C658.203,-61.068 654.427,-69.043 646.875,-75.879C639.323,-82.715 626.53,-90.202 608.496,-98.34C590.462,-106.478 577.865,-113.249 570.703,-118.652C563.542,-124.056 558.268,-129.948 554.883,-136.328C551.497,-142.708 549.805,-150.26 549.805,-158.984C549.805,-175.26 555.664,-188.704 567.383,-199.316C579.102,-209.928 594.271,-215.234 612.891,-215.234C632.943,-215.234 648.958,-209.57 660.938,-198.242C672.917,-186.914 678.906,-171.94 678.906,-153.32L657.227,-153.32C657.227,-165.299 653.125,-175.228 644.922,-183.105C636.719,-190.983 626.042,-194.922 612.891,-194.922C600.13,-194.922 590.007,-191.667 582.52,-185.156C575.033,-178.646 571.289,-170.182 571.289,-159.766C571.289,-151.302 574.154,-144.401 579.883,-139.063C585.612,-133.724 597.982,-126.497 616.992,-117.383C636.654,-108.789 650.195,-101.693 657.617,-96.094C665.039,-90.495 670.638,-84.277 674.414,-77.441C678.19,-70.605 680.078,-62.5 680.078,-53.125C680.078,-35.677 674.023,-21.81 661.914,-11.523C649.805,-1.237 633.854,3.906 614.063,3.906C593.099,3.906 576.139,-1.823 563.184,-13.281C550.228,-24.74 543.75,-39.518 543.75,-57.617L565.625,-57.617C566.276,-44.466 570.671,-34.277 578.809,-27.051C586.947,-19.824 598.698,-16.211 614.063,-16.211C627.344,-16.211 638.021,-19.466 646.094,-25.977C654.167,-32.487 658.203,-41.146 658.203,-51.953Z" style="fill-rule:nonzero;"/>
                <path d="M836.719,-51.953C836.719,-61.068 832.943,-69.043 825.391,-75.879C817.839,-82.715 805.046,-90.202 787.012,-98.34C768.978,-106.478 756.38,-113.249 749.219,-118.652C742.057,-124.056 736.784,-129.948 733.398,-136.328C730.013,-142.708 728.32,-150.26 728.32,-158.984C728.32,-175.26 734.18,-188.704 745.898,-199.316C757.617,-209.928 772.786,-215.234 791.406,-215.234C811.458,-215.234 827.474,-209.57 839.453,-198.242C851.432,-186.914 857.422,-171.94 857.422,-153.32L835.742,-153.32C835.742,-165.299 831.641,-175.228 823.438,-183.105C815.234,-190.983 804.557,-194.922 791.406,-194.922C778.646,-194.922 768.522,-191.667 761.035,-185.156C753.548,-178.646 749.805,-170.182 749.805,-159.766C749.805,-151.302 752.669,-144.401 758.398,-139.063C764.128,-133.724 776.497,-126.497 795.508,-117.383C815.169,-108.789 828.711,-101.693 836.133,-96.094C843.555,-90.495 849.154,-84.277 852.93,-77.441C856.706,-70.605 858.594,-62.5 858.594,-53.125C858.594,-35.677 852.539,-21.81 840.43,-11.523C828.32,-1.237 812.37,3.906 792.578,3.906C771.615,3.906 754.655,-1.823 741.699,-13.281C728.743,-24.74 722.266,-39.518 722.266,-57.617L744.141,-57.617C744.792,-44.466 749.186,-34.277 757.324,-27.051C765.462,-19.824 777.214,-16.211 792.578,-16.211C805.859,-16.211 816.536,-19.466 824.609,-25.977C832.682,-32.487 836.719,-41.146 836.719,-51.953Z" style="fill-rule:nonzero;"/>
                <path d="M991.602,-115.43C991.602,-148.503 997.396,-173.405 1008.98,-190.137C1020.57,-206.868 1037.76,-215.234 1060.55,-215.234C1084.51,-215.234 1102.41,-204.492 1114.26,-183.008L1114.26,-300L1135.94,-300L1135.94,0L1115.62,0L1114.65,-27.148C1102.8,-6.445 1084.7,3.906 1060.35,3.906C1038.09,3.906 1021.13,-4.557 1009.47,-21.484C997.819,-38.411 991.862,-62.435 991.602,-93.555L991.602,-115.43ZM1013.67,-95.703C1013.67,-68.62 1017.74,-48.698 1025.88,-35.938C1034.02,-23.177 1046.94,-16.797 1064.65,-16.797C1087.43,-16.797 1103.97,-27.669 1114.26,-49.414L1114.26,-158.984C1104.49,-182.552 1088.02,-194.336 1064.84,-194.336C1047.13,-194.336 1034.21,-188.021 1026.07,-175.391C1017.94,-162.76 1013.8,-143.229 1013.67,-116.797L1013.67,-95.703Z" style="fill-rule:nonzero;"/>
                <path d="M1264.26,3.906C1239.39,3.906 1219.92,-4.232 1205.86,-20.508C1191.8,-36.784 1184.63,-59.961 1184.38,-90.039L1184.38,-115.82C1184.38,-146.81 1191.15,-171.126 1204.69,-188.77C1218.23,-206.413 1236.85,-215.234 1260.55,-215.234C1283.46,-215.234 1300.94,-207.747 1312.99,-192.773C1325.03,-177.799 1331.18,-154.883 1331.44,-124.023L1331.44,-103.711L1205.86,-103.711L1205.86,-91.797C1205.86,-67.578 1211.04,-48.893 1221.39,-35.742C1231.74,-22.591 1246.35,-16.016 1265.23,-16.016C1286.07,-16.016 1302.93,-23.633 1315.82,-38.867L1327.15,-24.414C1313.35,-5.534 1292.38,3.906 1264.26,3.906ZM1260.55,-194.922C1243.49,-194.922 1230.37,-188.9 1221.19,-176.855C1212.01,-164.811 1206.97,-147.201 1206.06,-124.023L1309.77,-124.023L1309.77,-129.688C1308.72,-173.177 1292.32,-194.922 1260.55,-194.922Z" style="fill-rule:nonzero;"/>
            </g>
            <g transform="matrix(1,0,0,1,6394.01,2317.9)">
                <path d="M84.961,-33.984L136.914,-211.328L159.18,-211.328L93.359,0L76.172,0L9.961,-211.328L32.227,-211.328L84.961,-33.984Z" style="fill-rule:nonzero;"/>
                <path d="M321.094,-265.234L321.094,-211.328L357.227,-211.328L357.227,-191.797L321.094,-191.797L321.094,-51.367C321.094,-39.779 322.819,-31.152 326.27,-25.488C329.72,-19.824 335.482,-16.992 343.555,-16.992C347.07,-16.992 352.279,-17.643 359.18,-18.945L359.766,0.586C354.818,2.799 347.721,3.906 338.477,3.906C313.086,3.906 300.065,-13.542 299.414,-48.438L299.414,-191.797L266.797,-191.797L266.797,-211.328L299.414,-211.328L299.414,-265.234L321.094,-265.234Z" style="fill-rule:nonzero;"/>
                <path d="M487.305,-191.016C482.096,-191.927 477.539,-192.383 473.633,-192.383C461.654,-192.383 451.595,-188.281 443.457,-180.078C435.319,-171.875 429.557,-160.482 426.172,-145.898L426.172,0L404.492,0L404.492,-211.328L425.781,-211.328L426.172,-179.688C436.458,-203.385 452.604,-215.234 474.609,-215.234C480.339,-215.234 484.701,-214.388 487.695,-212.695L487.305,-191.016Z" style="fill-rule:nonzero;"/>
            </g>
            <g transform="matrix(1,0,0,1,6882.68,2317.9)">
                <path d="M140.625,0C138.672,-6.771 137.37,-16.536 136.719,-29.297C130.208,-18.75 121.842,-10.579 111.621,-4.785C101.4,1.009 90.299,3.906 78.32,3.906C60.091,3.906 45.898,-1.237 35.742,-11.523C25.586,-21.81 20.508,-36.458 20.508,-55.469C20.508,-76.172 27.572,-92.578 41.699,-104.688C55.827,-116.797 75.326,-122.917 100.195,-123.047L136.523,-123.047L136.523,-152.539C136.523,-167.643 132.78,-178.483 125.293,-185.059C117.806,-191.634 106.836,-194.922 92.383,-194.922C78.971,-194.922 67.969,-191.016 59.375,-183.203C50.781,-175.391 46.484,-165.299 46.484,-152.93L24.805,-153.125C24.805,-170.443 31.315,-185.124 44.336,-197.168C57.357,-209.212 73.698,-215.234 93.359,-215.234C114.583,-215.234 130.664,-209.896 141.602,-199.219C152.539,-188.542 158.008,-172.982 158.008,-152.539L158.008,-48.828C158.008,-28.125 159.896,-12.63 163.672,-2.344L163.672,0L140.625,0ZM81.055,-16.992C93.815,-16.992 105.111,-20.313 114.941,-26.953C124.772,-33.594 131.966,-42.448 136.523,-53.516L136.523,-104.883L102.148,-104.883C82.357,-104.622 67.448,-100.228 57.422,-91.699C47.396,-83.171 42.383,-71.68 42.383,-57.227C42.383,-30.404 55.273,-16.992 81.055,-16.992Z" style="fill-rule:nonzero;"/>
                <path d="M241.406,0L219.531,0L219.531,-211.328L241.406,-211.328L241.406,0ZM216.406,-272.266C216.406,-276.693 217.643,-280.469 220.117,-283.594C222.591,-286.719 226.107,-288.281 230.664,-288.281C235.221,-288.281 238.77,-286.719 241.309,-283.594C243.848,-280.469 245.117,-276.693 245.117,-272.266C245.117,-267.839 243.848,-264.095 241.309,-261.035C238.77,-257.975 235.221,-256.445 230.664,-256.445C226.107,-256.445 222.591,-257.975 220.117,-261.035C217.643,-264.095 216.406,-267.839 216.406,-272.266Z" style="fill-rule:nonzero;"/>
                <path d="M322.07,-211.328L322.656,-177.734C328.906,-189.193 336.882,-198.307 346.582,-205.078C356.283,-211.849 367.318,-215.234 379.688,-215.234C416.536,-215.234 435.417,-190.69 436.328,-141.602L436.328,0L414.844,0L414.844,-139.258C414.714,-158.138 411.393,-172.07 404.883,-181.055C398.372,-190.039 388.151,-194.531 374.219,-194.531C362.891,-194.531 352.702,-190.267 343.652,-181.738C334.603,-173.21 327.734,-161.523 323.047,-146.68L323.047,0L301.367,0L301.367,-211.328L322.07,-211.328Z" style="fill-rule:nonzero;"/>
                <path d="M518.164,0L496.289,0L496.289,-211.328L518.164,-211.328L518.164,0ZM493.164,-272.266C493.164,-276.693 494.401,-280.469 496.875,-283.594C499.349,-286.719 502.865,-288.281 507.422,-288.281C511.979,-288.281 515.527,-286.719 518.066,-283.594C520.605,-280.469 521.875,-276.693 521.875,-272.266C521.875,-267.839 520.605,-264.095 518.066,-261.035C515.527,-257.975 511.979,-256.445 507.422,-256.445C502.865,-256.445 499.349,-257.975 496.875,-261.035C494.401,-264.095 493.164,-267.839 493.164,-272.266Z" style="fill-rule:nonzero;"/>
                <path d="M598.828,-211.328L599.414,-177.734C605.664,-189.193 613.639,-198.307 623.34,-205.078C633.04,-211.849 644.076,-215.234 656.445,-215.234C693.294,-215.234 712.174,-190.69 713.086,-141.602L713.086,0L691.602,0L691.602,-139.258C691.471,-158.138 688.151,-172.07 681.641,-181.055C675.13,-190.039 664.909,-194.531 650.977,-194.531C639.648,-194.531 629.46,-190.267 620.41,-181.738C611.361,-173.21 604.492,-161.523 599.805,-146.68L599.805,0L578.125,0L578.125,-211.328L598.828,-211.328Z" style="fill-rule:nonzero;"/>
                <path d="M763.086,-115.43C763.086,-148.763 768.815,-173.73 780.273,-190.332C791.732,-206.934 808.919,-215.234 831.836,-215.234C856.185,-215.234 874.284,-204.102 886.133,-181.836L887.305,-211.328L907.422,-211.328L907.422,6.055C907.292,31.576 901.204,50.977 889.16,64.258C877.116,77.539 859.57,84.18 836.523,84.18C824.935,84.18 813.249,81.348 801.465,75.684C789.681,70.02 780.729,63.086 774.609,54.883L784.766,39.258C799.219,55.794 815.951,64.063 834.961,64.063C852.539,64.063 865.332,59.375 873.34,50C881.348,40.625 885.417,26.367 885.547,7.227L885.547,-26.367C873.698,-6.185 855.729,3.906 831.641,3.906C809.635,3.906 792.806,-4.362 781.152,-20.898C769.499,-37.435 763.477,-61.328 763.086,-92.578L763.086,-115.43ZM784.961,-95.703C784.961,-68.62 789.063,-48.698 797.266,-35.938C805.469,-23.177 818.359,-16.797 835.938,-16.797C859.375,-16.797 875.911,-27.93 885.547,-50.195L885.547,-158.203C875.781,-182.292 859.375,-194.336 836.328,-194.336C818.62,-194.336 805.664,-188.021 797.461,-175.391C789.258,-162.76 785.091,-143.229 784.961,-116.797L784.961,-95.703Z" style="fill-rule:nonzero;"/>
            </g>
        </g>
    </g>
</svg>
