<?xml version="1.0" encoding="UTF-8" standalone="no"?>
<svg
   width="7390.7852"
   height="1862.5"
   viewBox="0 0 7390.7852 1862.5"
   version="1.1"
   xml:space="preserve"
   style="clip-rule:evenodd;fill-rule:evenodd;stroke-linejoin:round;stroke-miterlimit:2"
   id="svg53"
   sodipodi:docname="letsboot_logo.svg"
   xmlns:inkscape="http://www.inkscape.org/namespaces/inkscape"
   xmlns:sodipodi="http://sodipodi.sourceforge.net/DTD/sodipodi-0.dtd"
   xmlns="http://www.w3.org/2000/svg"
   xmlns:svg="http://www.w3.org/2000/svg"><defs
   id="defs53" /><sodipodi:namedview
   id="namedview53"
   pagecolor="#ffffff"
   bordercolor="#000000"
   borderopacity="0.25"
   inkscape:showpageshadow="2"
   inkscape:pageopacity="0.0"
   inkscape:pagecheckerboard="0"
   inkscape:deskcolor="#d1d1d1"
   fit-margin-top="8"
   fit-margin-left="8"
   fit-margin-right="8"
   fit-margin-bottom="8" />
    <path
   d="M 870.833,0 V 1862.5 L 128.94,1452.68 0,308.307 Z"
   style="fill:#c82934"
   id="path1" />
    <path
   d="m 870.833,0 v 1862.5 l 741.89,-409.82 128.94,-1144.373 z"
   style="fill:#ae2632"
   id="path2" />
    <g
   id="g53"
   transform="translate(-399.317,-539.58)">
        <g
   id="g4">
            <clipPath
   id="_clip1">
                <path
   d="m 1924.91,1058.1 0.17,0.3 c 2.38,4.37 8.56,14.01 17,14.52 l 38.54,-32.19 56.19,-46.976 -68.29,24.836 -46.74,16.99 c -0.04,0.03 -0.05,0.06 -0.06,0.1 -4.1,7.85 0.8,18.04 3.19,22.42 z"
   id="path3" />
            </clipPath>
            <g
   clip-path="url(#_clip1)"
   id="g3">
                <rect
   x="1899.3101"
   y="972.91699"
   width="158.33299"
   height="120.833"
   style="fill:#fffffe"
   id="rect3" />
            </g>
        </g>
        <g
   id="g6">
            <clipPath
   id="_clip2">
                <path
   d="m 1570.15,1090.74 325.1,-35.72 c 1.39,5.36 3.81,10.97 6.1,15.27 3.07,5.73 6.43,10.2 9.99,13.37 l -216.73,250.55 c 1.01,0.66 2.03,1.33 3.06,1.99 4.13,2.64 8.31,5.16 12.55,7.55 l 226.6,-261.93 c -10.62,-0.89 -18.37,-12.67 -21.38,-18.03 l -0.21,-0.38 c -3.06,-5.45 -9.32,-18.11 -4.07,-27.87 0,-0.06 0.03,-0.08 0.05,-0.13 l -337.72,36.75 c -1.23,4.33 -2.61,8.73 -2.91,12.8 -0.13,1.84 -0.27,3.78 -0.43,5.78 z"
   id="path4" />
            </clipPath>
            <g
   clip-path="url(#_clip2)"
   id="g5">
                <rect
   x="1549.3101"
   y="1014.58"
   width="408.33301"
   height="350"
   style="fill:#fffffe"
   id="rect4" />
            </g>
        </g>
        <g
   id="g8">
            <clipPath
   id="_clip3">
                <path
   d="m 1057.71,1660.48 -0.04,-0.06 -0.02,0.02 c 0.03,0 0.04,0.02 0.06,0.04 z"
   id="path6" />
            </clipPath>
            <g
   clip-path="url(#_clip3)"
   id="g7">
                <rect
   x="1036.8101"
   y="1639.58"
   width="41.724998"
   height="41.729"
   style="fill:#fffffe"
   id="rect6" />
            </g>
        </g>
        <g
   id="g10">
            <clipPath
   id="_clip4">
                <path
   d="m 1279.33,1500.72 c -53.3,0 -96.67,-43.27 -96.67,-96.45 0,-53.19 43.37,-96.46 96.67,-96.46 8.72,0 17.37,1.17 25.68,3.47 0.36,0.09 0.72,0.19 1.07,0.3 41.13,11.79 69.92,49.92 69.92,92.69 0,53.18 -43.37,96.45 -96.67,96.45 z m 411.55,-133.31 c -0.32,-0.19 -0.64,-0.42 -0.95,-0.63 -1.42,-0.95 -2.85,-1.93 -4.25,-2.9 -1.09,-0.77 -2.18,-1.53 -3.27,-2.3 -12.88,-9.18 -25.24,-19.42 -36.92,-30.56 -10.73,-10.22 -20.51,-21.01 -29.8,-32.49 -0.01,0 -0.02,0.01 -0.03,0.01 l -0.06,0.07 -123.2,64.19 c -22.42,-28.96 -43.37,-68.91 -53.04,-104.49 -0.53,-2.02 -3.97,-15.24 -4.47,-17.27 l 117.4,-65.44 c -3.23,-11.84 -5.78,-23.86 -7.61,-36 -2.05,-13.68 -1.78,-32.42 -1.35,-47.42 0.07,-2.16 0.12,-4.26 0.19,-6.26 0.01,-0.54 0.05,-1.08 0.1,-1.65 0.03,-0.31 0.05,-0.63 0.09,-0.94 -4.04,-4.73 -20.9,-1.15 -40.79,8.42 l -7.05,4.27 -74.75,45.28 -10.22,6.18 -0.15,0.09 c -0.59,12.95 -1.39,30.43 -1.4,32.23 0,21.27 2.03,42.18 6.03,62.47 l -15.93,9.06 -86.73,49.24 c -3.43,-16.72 -6.07,-60.18 -6.86,-89.47 l -18.53,11.23 -49.74,30.11 -20.53,12.45 -46.67,28.26 -1.82,1.1 c 2.78,28.32 8.46,71.5 12.08,86.65 l -73.04,46.63 -24.46,15.11 c -4,-15.8 -8.64,-64.76 -10.49,-90.31 l -112.243,67.99 -0.012,0.01 -19.421,10.97 0.15,2.85 c 1.654,29.2 7.216,57.55 16.512,84.41 l 6.892,-3.89 17.221,-9.8 92.911,-53.3 c 4.88,14.11 14.99,36.1 21.93,49.29 0.45,0.84 0.9,1.68 1.34,2.52 7.48,13.89 17.6,29.27 27.15,41.81 l -103.65,47.8 -17.68,8.93 -0.96,0.49 c 16.6,21.66 36.15,41.16 58.24,58.01 l 120.46,-53.68 14.79,-6.49 2.22,-0.98 c -22.76,-15.2 -49.72,-39.67 -64.05,-55.97 l 15.22,-7.68 90.52,-41.5 c 10.36,12.13 40.69,44.84 58.29,61.33 l 2.3,-1.01 50.59,-22.17 21.68,-9.48 54.62,-23.95 19.89,-8.72 c -20.07,-14.57 -54.57,-42.73 -68.03,-57.54 l 70.81,-35.78 18.13,-9.15 14.25,-7.2 c 0.94,1.1 1.89,2.18 2.87,3.26 15.05,16.97 51.57,45.42 70.3,58.93 l 12.78,-5.6 85.01,-37.26 7.89,-3.45 c 18.58,-11.08 30.66,-22.9 29.3,-28.92 z"
   id="path8" />
            </clipPath>
            <g
   clip-path="url(#_clip4)"
   id="g9">
                <rect
   x="920.14697"
   y="1060.42"
   width="791.66699"
   height="620.83301"
   style="fill:#fffffe"
   id="rect8" />
            </g>
        </g>
        <g
   id="g12">
            <clipPath
   id="_clip5">
                <path
   d="m 1070.15,1514.58 -103.458,26.88 -34.971,9.09 -169.904,109.42 15.779,29.61 186.521,-83.58 z"
   id="path10" />
            </clipPath>
            <g
   clip-path="url(#_clip5)"
   id="g11">
                <rect
   x="740.98102"
   y="1493.75"
   width="350"
   height="216.66701"
   style="fill:#fffffe"
   id="rect10" />
            </g>
        </g>
        <g
   id="g14">
            <clipPath
   id="_clip6">
                <path
   d="m 515.981,1539.58 158.333,-73.77 -18.2,-34.56 z"
   id="path12" />
            </clipPath>
            <g
   clip-path="url(#_clip6)"
   id="g13">
                <rect
   x="495.147"
   y="1410.42"
   width="200"
   height="150"
   style="fill:#fffffe"
   id="rect12" />
            </g>
        </g>
        <g
   id="g16">
            <clipPath
   id="_clip7">
                <path
   d="m 1111.16,1307.21 c 0.8,-0.43 0.91,-1.72 0.06,-2.17 -53.16,-28.92 -106.32,-57.84 -159.477,-86.76 -2.162,-1.17 -4.333,-2.34 -6.491,-3.51 -0.763,-0.43 -1.53,-0.08 -1.855,0.69 -0.137,0.36 -0.279,0.7 -0.425,1.04 l -276.991,211.27 19.641,36.81 180.113,-82.78 c 7.458,-1.42 16.096,-1.38 25.037,0.53 9.338,2 16.563,6.52 22.492,12 6.583,6.05 11.583,13.27 16.154,19.47 0.354,0.42 1.046,0.52 1.488,0.24 63.346,-40 95.594,-57.73 159.914,-95.82 6.63,-3.93 13.56,-7.34 20.34,-11.01 z"
   id="path14" />
            </clipPath>
            <g
   clip-path="url(#_clip7)"
   id="g15">
                <rect
   x="645.14697"
   y="1193.75"
   width="487.5"
   height="291.66699"
   style="fill:#fffffe"
   id="rect14" />
            </g>
        </g>
        <g
   id="g18">
            <clipPath
   id="_clip8">
                <path
   d="m 736.814,1960.42 170.833,-60.62 -18.745,-35.21 z"
   id="path16" />
            </clipPath>
            <g
   clip-path="url(#_clip8)"
   id="g17">
                <rect
   x="715.98102"
   y="1843.75"
   width="212.5"
   height="137.5"
   style="fill:#fffffe"
   id="rect16" />
            </g>
        </g>
        <g
   id="g20">
            <clipPath
   id="_clip9">
                <path
   d="m 1245.65,1770.73 c 5.38,-59.95 10.77,-119.92 16.16,-179.87 0.09,-0.95 -1.03,-1.56 -1.83,-1.13 -6.78,3.63 -13.42,7.52 -20.33,10.88 -66.97,32.65 -99.42,49.75 -167.44,80.54 -0.48,0.22 -0.78,0.84 -0.63,1.37 2.62,7.18 5.82,15.28 7.21,24.05 1.26,7.91 1.02,16.39 -2.48,25.24 -3.35,8.47 -8.08,15.67 -13.36,21.09 l -17.02,10.58 -150.78,93.85 19.625,36.42 327.515,-114.77 2.69,-0.94 c 0.22,-2.44 0.45,-4.88 0.67,-7.31 z"
   id="path18" />
            </clipPath>
            <g
   clip-path="url(#_clip9)"
   id="g19">
                <rect
   x="874.31403"
   y="1568.75"
   width="408.33301"
   height="345.83301"
   style="fill:#fffffe"
   id="rect18" />
            </g>
        </g>
        <g
   id="g22">
            <clipPath
   id="_clip10">
                <path
   d="m 574.314,1777.08 191.667,-84.88 -14.896,-27.62 z"
   id="path20" />
            </clipPath>
            <g
   clip-path="url(#_clip10)"
   id="g21">
                <rect
   x="553.48102"
   y="1643.75"
   width="233.33299"
   height="154.16701"
   style="fill:#fffffe"
   id="rect20" />
            </g>
        </g>
        <g
   id="g24">
            <clipPath
   id="_clip11">
                <path
   d="m 1304.87,1314.58 -1.39,0.76 c 0.59,0.14 1.19,0.31 1.76,0.5 -0.11,-0.43 -0.25,-0.84 -0.37,-1.26 z"
   id="path22" />
            </clipPath>
            <g
   clip-path="url(#_clip11)"
   id="g23">
                <rect
   x="1282.65"
   y="1293.75"
   width="43.432999"
   height="42.921001"
   style="fill:#fffffe"
   id="rect22" />
            </g>
        </g>
        <g
   id="g26">
            <clipPath
   id="_clip12">
                <path
   d="m 1353.5,1423.26 c -0.74,3.02 -1.65,5.95 -2.72,8.74 -0.5,1.32 -1.01,2.61 -1.59,3.89 -12.53,28.7 -41.28,47.71 -72.8,47.71 -5.15,0 -10.29,-0.5 -15.31,-1.49 -1.39,-0.27 -2.77,-0.57 -4.14,-0.92 -2.94,-0.74 -5.91,-1.68 -8.83,-2.8 -1.72,-0.66 -3.41,-1.37 -5.06,-2.15 -27.79,-12.91 -46.09,-41.2 -46.09,-72.07 0,-4.38 0.37,-8.74 1.09,-13.03 0.29,-1.81 0.66,-3.62 1.08,-5.41 1.33,-5.62 3.31,-11.13 5.87,-16.38 0.77,-1.56 1.58,-3.1 2.44,-4.59 14.09,-24.47 40.6,-40.02 68.95,-40.02 1.74,0 3.48,0.05 5.22,0.16 1.73,0.12 3.45,0.29 5.16,0.51 6.13,0.79 12.16,2.32 17.93,4.54 0.96,0.37 1.9,0.75 2.83,1.14 29.01,12.42 48.3,41.4 48.3,73.08 0,5.43 -0.56,10.84 -1.67,16.13 -0.19,0.99 -0.41,1.98 -0.66,2.96 z m -52.39,-105.2 c -0.28,-0.09 -0.49,-0.16 -0.72,-0.21 l -0.15,-0.04 c -7.71,-2.14 -15.74,-3.23 -23.85,-3.23 -49.39,0 -89.58,40.19 -89.58,89.59 0,49.39 40.19,89.58 89.58,89.58 49.4,0 89.59,-40.19 89.59,-89.58 0,-39.74 -26.68,-75.14 -64.87,-86.11 z"
   id="path24" />
            </clipPath>
            <g
   clip-path="url(#_clip12)"
   id="g25">
                <rect
   x="1165.98"
   y="1293.75"
   width="220.83299"
   height="220.83299"
   style="fill:#fffffe"
   id="rect24" />
            </g>
        </g>
        <g
   transform="translate(2672.3,1881.25)"
   id="g35">
            <rect
   x="93.75"
   y="-900"
   width="65.625"
   height="900"
   style="fill-rule:nonzero"
   id="rect26" />
            <path
   d="m 548.438,11.719 c -74.61,0 -133.008,-24.414 -175.196,-73.242 -42.187,-48.829 -63.672,-118.36 -64.453,-208.594 v -77.344 c 0,-92.969 20.313,-165.918 60.938,-218.848 40.625,-52.929 96.484,-79.394 167.578,-79.394 68.75,0 121.191,22.461 157.324,67.383 36.133,44.922 54.59,113.672 55.371,206.25 v 60.937 H 373.242 v 35.742 c 0,72.657 15.528,128.711 46.582,168.164 31.055,39.454 74.903,59.18 131.543,59.18 62.5,0 113.086,-22.851 151.758,-68.555 l 33.984,43.36 c -41.406,56.64 -104.296,84.961 -188.671,84.961 z m -11.133,-596.485 c -51.172,0 -90.528,18.067 -118.067,54.2 -27.539,36.132 -42.675,88.964 -45.41,158.496 h 311.133 v -16.993 c -3.125,-130.468 -52.344,-195.703 -147.656,-195.703 z"
   style="fill-rule:nonzero"
   id="path26" />
            <path
   d="m 986.133,-795.703 v 161.719 h 108.397 v 58.593 H 986.133 v 421.289 c 0,34.766 5.176,60.645 15.527,77.637 10.35,16.992 27.64,25.488 51.86,25.488 10.54,0 26.17,-1.953 46.87,-5.859 l 1.76,58.594 c -14.84,6.64 -36.13,9.961 -63.87,9.961 -76.171,0 -115.233,-52.344 -117.186,-157.032 v -430.078 h -97.852 v -58.593 h 97.852 v -161.719 z"
   style="fill-rule:nonzero"
   id="path27" />
            <path
   d="m 1553.32,-155.859 c 0,-27.344 -11.33,-51.27 -33.98,-71.778 -22.66,-20.508 -61.04,-42.968 -115.14,-67.383 -54.1,-24.414 -91.89,-44.726 -113.38,-60.937 -21.48,-16.211 -37.3,-33.887 -47.46,-53.027 -10.16,-19.141 -15.24,-41.797 -15.24,-67.969 0,-48.828 17.58,-89.16 52.74,-120.996 35.16,-31.836 80.66,-47.754 136.52,-47.754 60.16,0 108.21,16.992 144.14,50.976 35.94,33.985 53.91,78.907 53.91,134.766 h -65.04 c 0,-35.937 -12.3,-65.723 -36.91,-89.355 -24.61,-23.633 -56.64,-35.45 -96.1,-35.45 -38.28,0 -68.65,9.766 -91.11,29.297 -22.46,19.531 -33.69,44.922 -33.69,76.172 0,25.391 8.59,46.094 25.78,62.109 17.19,16.016 54.3,37.696 111.33,65.04 58.98,25.781 99.61,47.07 121.87,63.867 22.27,16.797 39.06,35.449 50.39,55.957 11.33,20.508 16.99,44.824 16.99,72.949 0,52.344 -18.16,93.945 -54.49,124.805 -36.33,30.859 -84.18,46.289 -143.55,46.289 -62.89,0 -113.77,-17.188 -152.64,-51.563 -38.87,-34.375 -58.3,-78.711 -58.3,-133.008 h 65.63 c 1.95,39.454 15.13,70.02 39.55,91.7 24.41,21.679 59.67,32.519 105.76,32.519 39.84,0 71.87,-9.765 96.09,-29.297 24.22,-19.531 36.33,-45.508 36.33,-77.929 z"
   style="fill-rule:nonzero"
   id="path28" />
            <path
   d="m 2204.88,-287.109 c 0,97.656 -17.09,171.875 -51.27,222.656 -34.18,50.781 -85.06,76.172 -152.63,76.172 -74.61,0 -129.89,-32.227 -165.82,-96.68 L 1832.23,0 h -60.35 v -900 h 64.45 v 354.492 c 35.55,-66.797 90.04,-100.195 163.48,-100.195 68.35,0 119.33,24.121 152.92,72.363 33.6,48.242 50.98,120.215 52.15,215.918 z m -65.04,-59.18 c 0,-80.469 -11.91,-140.039 -35.74,-178.711 -23.83,-38.672 -62.89,-58.008 -117.19,-58.008 -72.26,0 -122.46,38.086 -150.58,114.258 v 314.062 c 13.28,33.204 32.81,58.887 58.59,77.051 25.78,18.164 56.84,27.246 93.17,27.246 51.95,0 90.13,-18.847 114.55,-56.543 24.41,-37.695 36.81,-96.386 37.2,-176.074 z"
   style="fill-rule:nonzero"
   id="path29" />
            <path
   d="m 2330.86,-349.219 c 0,-91.406 20.7,-163.672 62.11,-216.797 41.41,-53.125 97.85,-79.687 169.33,-79.687 71.88,0 128.42,26.172 169.63,78.515 41.21,52.344 62.02,124.415 62.41,216.211 v 67.383 c 0,92.969 -20.81,165.43 -62.41,217.383 -41.6,51.953 -97.75,77.93 -168.45,77.93 -70.71,0 -126.76,-25.391 -168.17,-76.172 -41.4,-50.781 -62.89,-120.703 -64.45,-209.766 z m 65.62,65.625 c 0,73.047 14.75,130.469 44.24,172.266 29.5,41.797 70.41,62.695 122.76,62.695 53.51,0 94.43,-20.117 122.75,-60.351 28.32,-40.235 42.68,-97.852 43.07,-172.852 v -67.383 c 0,-73.047 -14.85,-130.566 -44.53,-172.558 -29.69,-41.993 -70.51,-62.989 -122.47,-62.989 -50.39,0 -90.42,20.508 -120.11,61.524 -29.69,41.015 -44.92,97.461 -45.71,169.336 z"
   style="fill-rule:nonzero"
   id="path30" />
            <path
   d="m 2919.73,-349.219 c 0,-91.406 20.7,-163.672 62.11,-216.797 41.4,-53.125 97.85,-79.687 169.33,-79.687 71.88,0 128.42,26.172 169.63,78.515 41.21,52.344 62.01,124.415 62.4,216.211 v 67.383 c 0,92.969 -20.8,165.43 -62.4,217.383 -41.6,51.953 -97.75,77.93 -168.46,77.93 -70.7,0 -126.75,-25.391 -168.16,-76.172 -41.41,-50.781 -62.89,-120.703 -64.45,-209.766 z m 65.62,65.625 c 0,73.047 14.75,130.469 44.24,172.266 29.49,41.797 70.41,62.695 122.75,62.695 53.52,0 94.44,-20.117 122.76,-60.351 28.32,-40.235 42.67,-97.852 43.06,-172.852 v -67.383 c 0,-73.047 -14.84,-130.566 -44.53,-172.558 -29.68,-41.993 -70.51,-62.989 -122.46,-62.989 -50.39,0 -90.43,20.508 -120.12,61.524 -29.68,41.015 -44.92,97.461 -45.7,169.336 z"
   style="fill-rule:nonzero"
   id="path31" />
            <path
   d="m 3631.06,-795.703 v 161.719 h 108.39 v 58.593 h -108.39 v 421.289 c 0,34.766 5.17,60.645 15.52,77.637 10.35,16.992 27.64,25.488 51.86,25.488 10.54,0 26.17,-1.953 46.87,-5.859 l 1.76,58.594 c -14.84,6.64 -36.13,9.961 -63.87,9.961 -76.17,0 -115.23,-52.344 -117.18,-157.032 v -430.078 h -97.86 v -58.593 h 97.86 v -161.719 z"
   style="fill-rule:nonzero"
   id="path32" />
            <path
   d="m 3879.49,-42.773 c 0,-14.063 4.4,-25.879 13.19,-35.45 8.79,-9.57 20.99,-14.355 36.62,-14.355 15.62,0 27.93,4.785 36.91,14.355 8.99,9.571 13.48,21.387 13.48,35.45 0,13.671 -4.49,25 -13.48,33.984 -8.98,8.984 -21.29,13.477 -36.91,13.477 -15.63,0 -27.83,-4.493 -36.62,-13.477 -8.79,-8.984 -13.19,-20.313 -13.19,-33.984 z"
   style="fill-rule:nonzero"
   id="path33" />
            <path
   d="m 4368.16,-48.633 c 45.32,0 80.08,-12.695 104.3,-38.086 24.22,-25.39 37.31,-61.914 39.26,-109.57 h 62.69 c -3.12,64.844 -23.82,115.723 -62.1,152.637 -38.29,36.914 -86.33,55.371 -144.15,55.371 -75.39,0 -132.32,-24.121 -170.8,-72.364 -38.47,-48.242 -58.1,-119.824 -58.88,-214.746 v -77.343 c 0,-96.875 19.24,-169.922 57.71,-219.141 38.48,-49.219 95.61,-73.828 171.39,-73.828 62.89,0 112.5,19.824 148.83,59.473 36.32,39.648 55.66,95.019 58,166.113 h -62.69 c -1.95,-52.344 -15.24,-92.871 -39.84,-121.582 -24.61,-28.711 -59.38,-43.067 -104.3,-43.067 -56.25,0 -97.56,18.946 -123.93,56.836 -26.37,37.891 -39.55,96.094 -39.55,174.61 v 72.07 c 0,81.25 13.28,140.332 39.84,177.246 26.57,36.914 67.97,55.371 124.22,55.371 z"
   style="fill-rule:nonzero"
   id="path34" />
            <path
   d="m 4777.15,-534.375 c 18.75,-33.984 42.48,-61.035 71.19,-81.152 28.71,-20.118 61.62,-30.176 98.73,-30.176 110.55,0 167.19,73.633 169.92,220.898 V 0 h -64.45 v -417.773 c -0.39,-56.641 -10.35,-98.438 -29.88,-125.391 -19.54,-26.953 -50.2,-40.43 -92,-40.43 -33.98,0 -64.55,12.793 -91.69,38.379 -27.15,25.586 -47.76,60.645 -61.82,105.176 V 0 h -65.04 v -900 h 65.04 z"
   style="fill-rule:nonzero"
   id="path35" />
        </g>
        <g
   id="g52">
            <g
   transform="translate(5047.91,2317.9)"
   id="g42">
                <path
   d="m 134.57,-51.953 c 0,-9.115 -3.776,-17.09 -11.328,-23.926 -7.552,-6.836 -20.345,-14.323 -38.379,-22.461 -18.034,-8.138 -30.631,-14.909 -37.793,-20.312 -7.161,-5.404 -12.435,-11.296 -15.82,-17.676 -3.385,-6.38 -5.078,-13.932 -5.078,-22.656 0,-16.276 5.859,-29.72 17.578,-40.332 11.719,-10.612 26.888,-15.918 45.508,-15.918 20.052,0 36.068,5.664 48.047,16.992 11.979,11.328 17.968,26.302 17.968,44.922 h -21.679 c 0,-11.979 -4.102,-21.908 -12.305,-29.785 -8.203,-7.878 -18.88,-11.817 -32.031,-11.817 -12.761,0 -22.884,3.255 -30.371,9.766 -7.487,6.51 -11.231,14.974 -11.231,25.39 0,8.464 2.865,15.365 8.594,20.703 5.729,5.339 18.099,12.566 37.109,21.68 19.662,8.594 33.204,15.69 40.625,21.289 7.422,5.599 13.021,11.817 16.797,18.653 3.776,6.836 5.664,14.941 5.664,24.316 0,17.448 -6.054,31.315 -18.164,41.602 C 126.172,-1.237 110.221,3.906 90.43,3.906 69.466,3.906 52.507,-1.823 39.551,-13.281 26.595,-24.74 20.117,-39.518 20.117,-57.617 h 21.875 c 0.651,13.151 5.046,23.34 13.184,30.566 8.138,7.227 19.889,10.84 35.254,10.84 13.281,0 23.958,-3.255 32.031,-9.766 8.073,-6.51 12.109,-15.169 12.109,-25.976 z"
   style="fill-rule:nonzero"
   id="path36" />
                <path
   d="m 251.953,-48.047 1.758,11.719 2.344,-12.695 43.164,-162.305 h 18.164 l 42.773,160.937 3.125,16.602 2.539,-14.844 36.524,-162.695 h 22.265 L 372.852,0 h -18.164 l -45.899,-167.969 -0.976,-5.078 -0.782,5.274 L 261.914,0 h -18.359 l -51.367,-211.328 h 22.07 z"
   style="fill-rule:nonzero"
   id="path37" />
                <path
   d="m 492.578,0 h -21.875 v -211.328 h 21.875 z m -25,-272.266 c 0,-4.427 1.237,-8.203 3.711,-11.328 2.474,-3.125 5.99,-4.687 10.547,-4.687 4.557,0 8.105,1.562 10.644,4.687 2.54,3.125 3.809,6.901 3.809,11.328 0,4.427 -1.269,8.171 -3.809,11.231 -2.539,3.06 -6.087,4.59 -10.644,4.59 -4.557,0 -8.073,-1.53 -10.547,-4.59 -2.474,-3.06 -3.711,-6.804 -3.711,-11.231 z"
   style="fill-rule:nonzero"
   id="path38" />
                <path
   d="m 658.203,-51.953 c 0,-9.115 -3.776,-17.09 -11.328,-23.926 -7.552,-6.836 -20.345,-14.323 -38.379,-22.461 -18.034,-8.138 -30.631,-14.909 -37.793,-20.312 -7.161,-5.404 -12.435,-11.296 -15.82,-17.676 -3.386,-6.38 -5.078,-13.932 -5.078,-22.656 0,-16.276 5.859,-29.72 17.578,-40.332 11.719,-10.612 26.888,-15.918 45.508,-15.918 20.052,0 36.067,5.664 48.047,16.992 11.979,11.328 17.968,26.302 17.968,44.922 h -21.679 c 0,-11.979 -4.102,-21.908 -12.305,-29.785 -8.203,-7.878 -18.88,-11.817 -32.031,-11.817 -12.761,0 -22.884,3.255 -30.371,9.766 -7.487,6.51 -11.231,14.974 -11.231,25.39 0,8.464 2.865,15.365 8.594,20.703 5.729,5.339 18.099,12.566 37.109,21.68 19.662,8.594 33.203,15.69 40.625,21.289 7.422,5.599 13.021,11.817 16.797,18.653 3.776,6.836 5.664,14.941 5.664,24.316 0,17.448 -6.055,31.315 -18.164,41.602 -12.109,10.286 -28.06,15.429 -47.851,15.429 -20.964,0 -37.924,-5.729 -50.879,-17.187 C 550.228,-24.74 543.75,-39.518 543.75,-57.617 h 21.875 c 0.651,13.151 5.046,23.34 13.184,30.566 8.138,7.227 19.889,10.84 35.254,10.84 13.281,0 23.958,-3.255 32.031,-9.766 8.073,-6.51 12.109,-15.169 12.109,-25.976 z"
   style="fill-rule:nonzero"
   id="path39" />
                <path
   d="m 836.719,-51.953 c 0,-9.115 -3.776,-17.09 -11.328,-23.926 -7.552,-6.836 -20.345,-14.323 -38.379,-22.461 -18.034,-8.138 -30.632,-14.909 -37.793,-20.312 -7.162,-5.404 -12.435,-11.296 -15.821,-17.676 -3.385,-6.38 -5.078,-13.932 -5.078,-22.656 0,-16.276 5.86,-29.72 17.578,-40.332 11.719,-10.612 26.888,-15.918 45.508,-15.918 20.052,0 36.068,5.664 48.047,16.992 11.979,11.328 17.969,26.302 17.969,44.922 h -21.68 c 0,-11.979 -4.101,-21.908 -12.304,-29.785 -8.204,-7.878 -18.881,-11.817 -32.032,-11.817 -12.76,0 -22.884,3.255 -30.371,9.766 -7.487,6.51 -11.23,14.974 -11.23,25.39 0,8.464 2.864,15.365 8.593,20.703 5.73,5.339 18.099,12.566 37.11,21.68 19.661,8.594 33.203,15.69 40.625,21.289 7.422,5.599 13.021,11.817 16.797,18.653 3.776,6.836 5.664,14.941 5.664,24.316 0,17.448 -6.055,31.315 -18.164,41.602 -12.11,10.286 -28.06,15.429 -47.852,15.429 -20.963,0 -37.923,-5.729 -50.879,-17.187 -12.956,-11.459 -19.433,-26.237 -19.433,-44.336 h 21.875 c 0.651,13.151 5.045,23.34 13.183,30.566 8.138,7.227 19.89,10.84 35.254,10.84 13.281,0 23.958,-3.255 32.031,-9.766 8.073,-6.51 12.11,-15.169 12.11,-25.976 z"
   style="fill-rule:nonzero"
   id="path40" />
                <path
   d="m 991.602,-115.43 c 0,-33.073 5.794,-57.975 17.378,-74.707 11.59,-16.731 28.78,-25.097 51.57,-25.097 23.96,0 41.86,10.742 53.71,32.226 V -300 h 21.68 V 0 h -20.32 l -0.97,-27.148 c -11.85,20.703 -29.95,31.054 -54.3,31.054 -22.26,0 -39.22,-8.463 -50.88,-25.39 -11.651,-16.927 -17.608,-40.951 -17.868,-72.071 z m 22.068,19.727 c 0,27.083 4.07,47.005 12.21,59.765 8.14,12.761 21.06,19.141 38.77,19.141 22.78,0 39.32,-10.872 49.61,-32.617 v -109.57 c -9.77,-23.568 -26.24,-35.352 -49.42,-35.352 -17.71,0 -30.63,6.315 -38.77,18.945 -8.13,12.631 -12.27,32.162 -12.4,58.594 z"
   style="fill-rule:nonzero"
   id="path41" />
                <path
   d="m 1264.26,3.906 c -24.87,0 -44.34,-8.138 -58.4,-24.414 -14.06,-16.276 -21.23,-39.453 -21.48,-69.531 v -25.781 c 0,-30.99 6.77,-55.306 20.31,-72.95 13.54,-17.643 32.16,-26.464 55.86,-26.464 22.91,0 40.39,7.487 52.44,22.461 12.04,14.974 18.19,37.89 18.45,68.75 v 20.312 h -125.58 v 11.914 c 0,24.219 5.18,42.904 15.53,56.055 10.35,13.151 24.96,19.726 43.84,19.726 20.84,0 37.7,-7.617 50.59,-22.851 l 11.33,14.453 c -13.8,18.88 -34.77,28.32 -62.89,28.32 z m -3.71,-198.828 c -17.06,0 -30.18,6.022 -39.36,18.067 -9.18,12.044 -14.22,29.654 -15.13,52.832 h 103.71 v -5.665 c -1.05,-43.489 -17.45,-65.234 -49.22,-65.234 z"
   style="fill-rule:nonzero"
   id="path42" />
            </g>
            <g
   transform="translate(6394.01,2317.9)"
   id="g45">
                <path
   d="m 84.961,-33.984 51.953,-177.344 H 159.18 L 93.359,0 H 76.172 L 9.961,-211.328 h 22.266 z"
   style="fill-rule:nonzero"
   id="path43" />
                <path
   d="m 321.094,-265.234 v 53.906 h 36.133 v 19.531 h -36.133 v 140.43 c 0,11.588 1.725,20.215 5.176,25.879 3.45,5.664 9.212,8.496 17.285,8.496 3.515,0 8.724,-0.651 15.625,-1.953 l 0.586,19.531 c -4.948,2.213 -12.045,3.32 -21.289,3.32 -25.391,0 -38.412,-17.448 -39.063,-52.344 v -143.359 h -32.617 v -19.531 h 32.617 v -53.906 z"
   style="fill-rule:nonzero"
   id="path44" />
                <path
   d="m 487.305,-191.016 c -5.209,-0.911 -9.766,-1.367 -13.672,-1.367 -11.979,0 -22.038,4.102 -30.176,12.305 -8.138,8.203 -13.9,19.596 -17.285,34.18 V 0 h -21.68 v -211.328 h 21.289 l 0.391,31.64 c 10.286,-23.697 26.432,-35.546 48.437,-35.546 5.73,0 10.092,0.846 13.086,2.539 z"
   style="fill-rule:nonzero"
   id="path45" />
            </g>
            <g
   transform="translate(6882.68,2317.9)"
   id="g51">
                <path
   d="m 140.625,0 c -1.953,-6.771 -3.255,-16.536 -3.906,-29.297 -6.511,10.547 -14.877,18.718 -25.098,24.512 C 101.4,1.009 90.299,3.906 78.32,3.906 60.091,3.906 45.898,-1.237 35.742,-11.523 25.586,-21.81 20.508,-36.458 20.508,-55.469 c 0,-20.703 7.064,-37.109 21.191,-49.219 14.128,-12.109 33.627,-18.229 58.496,-18.359 h 36.328 v -29.492 c 0,-15.104 -3.743,-25.944 -11.23,-32.52 -7.487,-6.575 -18.457,-9.863 -32.91,-9.863 -13.412,0 -24.414,3.906 -33.008,11.719 -8.594,7.812 -12.891,17.904 -12.891,30.273 l -21.679,-0.195 c 0,-17.318 6.51,-31.999 19.531,-44.043 13.021,-12.044 29.362,-18.066 49.023,-18.066 21.224,0 37.305,5.338 48.243,16.015 10.937,10.677 16.406,26.237 16.406,46.68 v 103.711 c 0,20.703 1.888,36.198 5.664,46.484 V 0 Z m -59.57,-16.992 c 12.76,0 24.056,-3.321 33.886,-9.961 9.831,-6.641 17.025,-15.495 21.582,-26.563 v -51.367 h -34.375 c -19.791,0.261 -34.7,4.655 -44.726,13.184 -10.026,8.528 -15.039,20.019 -15.039,34.472 0,26.823 12.89,40.235 38.672,40.235 z"
   style="fill-rule:nonzero"
   id="path46" />
                <path
   d="m 241.406,0 h -21.875 v -211.328 h 21.875 z m -25,-272.266 c 0,-4.427 1.237,-8.203 3.711,-11.328 2.474,-3.125 5.99,-4.687 10.547,-4.687 4.557,0 8.106,1.562 10.645,4.687 2.539,3.125 3.808,6.901 3.808,11.328 0,4.427 -1.269,8.171 -3.808,11.231 -2.539,3.06 -6.088,4.59 -10.645,4.59 -4.557,0 -8.073,-1.53 -10.547,-4.59 -2.474,-3.06 -3.711,-6.804 -3.711,-11.231 z"
   style="fill-rule:nonzero"
   id="path47" />
                <path
   d="m 322.07,-211.328 0.586,33.594 c 6.25,-11.459 14.226,-20.573 23.926,-27.344 9.701,-6.771 20.736,-10.156 33.106,-10.156 36.848,0 55.729,24.544 56.64,73.632 V 0 h -21.484 v -139.258 c -0.13,-18.88 -3.451,-32.812 -9.961,-41.797 -6.511,-8.984 -16.732,-13.476 -30.664,-13.476 -11.328,0 -21.517,4.264 -30.567,12.793 -9.049,8.528 -15.918,20.215 -20.605,35.058 V 0 h -21.68 v -211.328 z"
   style="fill-rule:nonzero"
   id="path48" />
                <path
   d="m 518.164,0 h -21.875 v -211.328 h 21.875 z m -25,-272.266 c 0,-4.427 1.237,-8.203 3.711,-11.328 2.474,-3.125 5.99,-4.687 10.547,-4.687 4.557,0 8.105,1.562 10.644,4.687 2.539,3.125 3.809,6.901 3.809,11.328 0,4.427 -1.27,8.171 -3.809,11.231 -2.539,3.06 -6.087,4.59 -10.644,4.59 -4.557,0 -8.073,-1.53 -10.547,-4.59 -2.474,-3.06 -3.711,-6.804 -3.711,-11.231 z"
   style="fill-rule:nonzero"
   id="path49" />
                <path
   d="m 598.828,-211.328 0.586,33.594 c 6.25,-11.459 14.225,-20.573 23.926,-27.344 9.7,-6.771 20.736,-10.156 33.105,-10.156 36.849,0 55.729,24.544 56.641,73.632 V 0 h -21.484 v -139.258 c -0.131,-18.88 -3.451,-32.812 -9.961,-41.797 -6.511,-8.984 -16.732,-13.476 -30.664,-13.476 -11.329,0 -21.517,4.264 -30.567,12.793 -9.049,8.528 -15.918,20.215 -20.605,35.058 V 0 h -21.68 v -211.328 z"
   style="fill-rule:nonzero"
   id="path50" />
                <path
   d="m 763.086,-115.43 c 0,-33.333 5.729,-58.3 17.187,-74.902 11.459,-16.602 28.646,-24.902 51.563,-24.902 24.349,0 42.448,11.132 54.297,33.398 l 1.172,-29.492 h 20.117 V 6.055 c -0.13,25.521 -6.218,44.922 -18.262,58.203 -12.044,13.281 -29.59,19.922 -52.637,19.922 -11.588,0 -23.274,-2.832 -35.058,-8.496 C 789.681,70.02 780.729,63.086 774.609,54.883 l 10.157,-15.625 c 14.453,16.536 31.185,24.805 50.195,24.805 17.578,0 30.371,-4.688 38.379,-14.063 8.008,-9.375 12.077,-23.633 12.207,-42.773 v -33.594 c -11.849,20.182 -29.818,30.273 -53.906,30.273 -22.006,0 -38.835,-8.268 -50.489,-24.804 -11.653,-16.537 -17.675,-40.43 -18.066,-71.68 z m 21.875,19.727 c 0,27.083 4.102,47.005 12.305,59.765 8.203,12.761 21.093,19.141 38.672,19.141 23.437,0 39.973,-11.133 49.609,-33.398 v -108.008 c -9.766,-24.089 -26.172,-36.133 -49.219,-36.133 -17.708,0 -30.664,6.315 -38.867,18.945 -8.203,12.631 -12.37,32.162 -12.5,58.594 z"
   style="fill-rule:nonzero"
   id="path51" />
            </g>
        </g>
    </g>
</svg>
