<?xml version="1.0" encoding="UTF-8" standalone="no"?>
<!DOCTYPE svg PUBLIC "-//W3C//DTD SVG 1.1//EN" "http://www.w3.org/Graphics/SVG/1.1/DTD/svg11.dtd">
<svg version="1.0" id="Ebene_1" xmlns="http://www.w3.org/2000/svg" xmlns:xlink="http://www.w3.org/1999/xlink" x="0px" y="0px" viewBox="0 0 142.37 104.191" style="enable-background:new 0 0 142.37 104.191;" xml:space="preserve">
<style type="text/css">.logo-st0{fill:#E2001A;}.logo-st1{fill:#FFFFFF;}.logo-st2{fill:#4A4A4A;}</style>
<g>
	<g>
		<path class="logo-st0" d="M142.37,5.32v81.5l-0.03,0.64l-0.07,0.59l-0.13,0.53l-0.16,0.48l-0.21,0.44l-0.23,0.4l-0.26,0.35l-0.29,0.32    l-0.41,0.36l-0.43,0.3l-0.44,0.25l-0.44,0.2l-0.57,0.19l-0.53,0.14l-0.58,0.09l-0.54,0.04H111.8c-0.26-1.39-0.94-2.64-1.9-3.6    c-1.24-1.24-2.96-2.01-4.86-2.01H37.33c-3.37,0-6.17,2.42-6.76,5.61H5.32l-0.63-0.02L4.1,92.04l-0.53-0.12l-0.49-0.17l-0.44-0.2    l-0.39-0.24l-0.36-0.26l-0.31-0.29l-0.36-0.4l-0.3-0.44l-0.25-0.44l-0.2-0.44l-0.2-0.57l-0.13-0.52l-0.1-0.59L0,86.82V5.32    l0.03-0.63L0.11,4.1l0.12-0.53L0.4,3.08l0.2-0.44l0.23-0.39L1.1,1.89l0.28-0.31l0.41-0.36l0.43-0.31l0.44-0.24l0.45-0.2l0.56-0.2    L4.2,0.14l0.58-0.1L5.32,0h131.73l0.64,0.03l0.58,0.08l0.54,0.12l0.48,0.17l0.44,0.2l0.4,0.23l0.35,0.27l0.31,0.28l0.37,0.41    l0.3,0.43l0.25,0.44l0.19,0.44l0.2,0.57l0.13,0.53l0.1,0.58L142.37,5.32z"></path>
		<g>
			<g transform="matrix(1.25 0 0 -1.25 29.636 19.614)">
				<path class="logo-st1" d="M0.307,4.731c-5.976,0-10.896-4.424-10.896-11.792c0-6.904,3.336-11.232,10.144-11.232      c6.04,0,10.896,4.456,10.896,11.824C10.451,1.163,6.259,4.731,0.307,4.731z M-0.149-14.397c-4,0-5.848,3.072-5.848,7.8      c0,5.016,2.84,7.464,5.912,7.464c3.832,0,5.944-2.712,5.944-7.664C5.859-12.149,2.755-14.397-0.149-14.397z"></path>
			</g>
			<g transform="matrix(1.25 0 0 -1.25 73.536 17.327)">
				<path class="logo-st1" d="M-1.741,1.182c0.632,0,1.392-0.064,2.048-0.296l0.304,3.472c-0.864,0.2-1.784,0.264-2.68,0.264      c-4.496,0-6.544-2.184-6.544-6.64v-1.32h-2.872V-6.61h2.872v-13.152h4.2V-6.61h3.832v3.272h-3.832v1.384      C-4.413,0.23-3.589,1.182-1.741,1.182z M-12.605,1.182c0.624,0,1.384-0.064,2.048-0.296l0.296,3.472      c-0.864,0.2-1.784,0.264-2.68,0.264c-4.488,0-6.536-2.184-6.536-6.64v-1.32h-2.88V-6.61h2.88v-13.152h4.192V-6.61h3.832v3.272      h-3.832v1.384C-15.285,0.23-14.461,1.182-12.605,1.182z"></path>
			</g>
			<g transform="matrix(1.25 0 0 -1.25 81.661 19.941)">
				<path class="logo-st1" d="M0.383,5.985c-1.424,0-2.608-1.152-2.608-2.544c0-1.424,1.184-2.576,2.608-2.576      c1.456,0,2.64,1.152,2.64,2.576C3.023,4.865,1.839,5.985,0.383,5.985z M-4.569-1.511v-2.648c0.952-0.064,2.08-0.2,2.872-0.328      v-13.184h4.192v16.456C0.055-1.151-2.489-1.247-4.569-1.511z"></path>
			</g>
			<g transform="matrix(1.25 0 0 -1.25 98.446 43.22)">
				<path class="logo-st1" d="M0.535,0.655c-4.56,0-7.401,2.378-7.401,7.963c0,5.122,2.677,9.053,8.492,9.053      c1.124,0,2.313-0.165,3.371-0.462l-0.43-3.668c-0.892,0.331-1.916,0.595-2.974,0.595c-2.676,0-4.03-1.982-4.03-5.088      c0-2.808,1.089-4.725,3.897-4.725c1.124,0,2.347,0.231,3.239,0.694l0.331-3.602C3.905,0.986,2.286,0.655,0.535,0.655      L0.535,0.655z"></path>
			</g>
			<g transform="matrix(1.25 0 0 -1.25 116.7 25.944)">
				<path class="logo-st1" d="M7.736-3.421c0,4.064-2.112,7.336-6.904,7.336c-4.928,0-7.696-3.696-7.696-8.72      c0-5.784,2.904-8.392,8.128-8.392c2.048,0,4.128,0.36,5.88,1.056l-0.4,3.272C5.328-9.533,3.576-9.893,1.952-9.893      c-3.04,0-4.56,1.488-4.528,4.56H7.608C7.704-4.645,7.736-3.981,7.736-3.421z M-2.504-2.461c0.232,1.984,1.448,3.272,3.2,3.272      c1.784,0,2.912-1.224,2.848-3.272H-2.504z"></path>
			</g>
			<g transform="matrix(1.25 0 0 -1.25 46.136 78.545)">
				<path class="logo-st1" d="M0.063,0.355h-5.287l-3.238,12.291c-0.396,1.421-0.627,3.006-0.859,4.592h-0.032      c-0.166-1.552-0.43-3.006-0.827-4.493l-3.237-12.39h-4.99l-5.682,22.302h4.592l3.04-12.324c0.363-1.453,0.628-2.973,0.826-4.526      h0.032c0.232,1.487,0.463,2.973,0.86,4.394l3.403,12.457h4.56l3.436-12.39c0.331-1.223,0.694-2.776,0.892-4.328h0.032      C-2.184,7.491-1.919,8.88-1.588,10.2l3.039,12.457h4.296L0.063,0.355z"></path>
			</g>
			<g transform="matrix(1.25 0 0 -1.25 63.572 62.249)">
				<path class="logo-st1" d="M0.518,4.071c-4.992,0-8.392-3.704-8.392-8.824c0-5.848,3.008-8.256,7.664-8.256      c4.928,0,8.392,3.696,8.392,8.848C8.182,1.495,5.174,4.071,0.518,4.071z M0.15-9.409c-2.44,0-3.664,1.72-3.664,5.088      c0,3.368,1.848,4.824,3.736,4.824c2.48,0,3.6-1.72,3.6-4.896C3.822-7.729,2.238-9.409,0.15-9.409z"></path>
			</g>
			<g transform="matrix(1.25 0 0 -1.25 84.317 62.331)">
				<path class="logo-st1" d="M0.407,0.501h0.066c0.793,2.081,2.38,3.898,5.221,3.668L5.495,0.005C2.456,0.633,0.936-1.35,0.936-5.91      v-6.707h-4.196V0.567c-0.794,0.132-1.917,0.265-2.875,0.331v2.643c2.081,0.264,4.626,0.363,6.839,0.297      C0.705,2.979,0.606,1.658,0.407,0.501L0.407,0.501z"></path>
			</g>
			<g transform="matrix(1.25 0 0 -1.25 100.49 78.545)">
				<path class="logo-st1" d="M0.553,0.355h-4.229v20.882c-0.793,0.132-1.916,0.264-2.874,0.331v2.643      c2.115,0.264,4.658,0.363,7.103,0.296V0.355z"></path>
			</g>
			<g transform="matrix(1.25 0 0 -1.25 118.87 62.331)">
				<path class="logo-st1" d="M4.912-9.375v20.912c-2.408,0.064-4.984-0.032-7.064-0.296V8.593C-1.2,8.529-0.072,8.401,0.72,8.265V3.969      c-0.728,0.104-1.392,0.136-2.08,0.136c-5.456,0-8.696-3.832-8.696-9.384c0-4.696,1.984-7.704,5.984-7.704      c2.512,0,4.328,1.296,5.184,3.112h0.072c-0.136-0.896-0.2-1.952-0.2-2.776c2.176-0.072,4.72,0.032,6.808,0.296v2.64      C6.832-9.639,5.704-9.511,4.912-9.375z M0.72-4.095c0-2.808-1.32-5.384-3.536-5.384c-1.92,0-2.808,1.584-2.808,4.664      c0,4.064,1.72,5.576,4.128,5.576c0.728,0,1.456-0.096,2.216-0.256V-4.095z"></path>
			</g>
		</g>
		<g>
			<path class="logo-st2" d="M50.55,92.18c-0.01-0.01-0.02-0.03-0.03-0.04c-0.34-0.61-0.84-1.1-1.5-1.46c-0.68-0.37-1.49-0.55-2.46-0.55     c-0.76,0-1.47,0.14-2.13,0.42c-0.66,0.29-1.24,0.7-1.74,1.22c-0.11,0.12-0.21,0.24-0.31,0.37c-0.36,0.45-0.64,0.96-0.86,1.53     c-0.28,0.74-0.42,1.56-0.42,2.47c0,0.22,0.01,0.44,0.04,0.65c0.07,0.54,0.24,1.04,0.49,1.49c0.36,0.64,0.88,1.14,1.55,1.5     c0.67,0.37,1.48,0.55,2.41,0.55c0.76,0,1.47-0.14,2.13-0.42c0.67-0.28,1.25-0.69,1.75-1.22c0.51-0.53,0.9-1.16,1.19-1.9     c0.28-0.74,0.42-1.56,0.42-2.47C51.08,93.53,50.91,92.81,50.55,92.18z M47.41,96.99c-0.22,0.32-0.49,0.58-0.78,0.76     c-0.3,0.18-0.61,0.27-0.95,0.27c-0.33,0-0.62-0.08-0.86-0.25c-0.25-0.17-0.44-0.41-0.58-0.73c-0.04-0.08-0.07-0.16-0.09-0.25     c-0.08-0.24-0.11-0.53-0.11-0.83c0-0.49,0.06-0.95,0.19-1.37c0.13-0.42,0.31-0.8,0.54-1.12c0.23-0.32,0.49-0.58,0.78-0.76     c0.29-0.18,0.61-0.27,0.94-0.27c0.33,0,0.62,0.08,0.87,0.25c0.25,0.17,0.44,0.41,0.58,0.72c0.14,0.3,0.2,0.67,0.2,1.08     c0,0.49-0.06,0.95-0.19,1.38c-0.1,0.34-0.24,0.65-0.41,0.92C47.5,96.86,47.46,96.93,47.41,96.99z"></path>
			<path class="logo-st2" d="M60.49,90.3l-0.39,1.84l-0.75,3.57h-0.06l-1.77-3.57l-0.91-1.84h-2.19l-0.39,1.84l-0.99,4.65l-0.72,3.37     h2.77l0.71-3.37l0.43-2.04h0.06l1.01,2.04l1.67,3.37h2.19l0.72-3.37l0.99-4.65l0.39-1.84H60.49z"></path>
			<path class="logo-st2" d="M68,97.8l0.21-1.01l0.99-4.65l0.39-1.84h-2.9l-0.39,1.84l-0.99,4.65l-0.71,3.37h6.91l0.5-2.36H68z"></path>
			<path class="logo-st2" d="M76.26,90.3l-0.39,1.84l-0.99,4.65l-0.72,3.37h2.9l0.72-3.37l0.99-4.65l0.39-1.84H76.26z"></path>
			<path class="logo-st2" d="M88.39,90.3L88,92.14l-0.75,3.57h-0.06l-1.77-3.57l-0.91-1.84h-2.19l-0.39,1.84l-0.99,4.65l-0.72,3.37h2.77     l0.71-3.37l0.43-2.04h0.05l1.01,2.04l1.68,3.37h2.19l0.72-3.37l0.99-4.65l0.39-1.84H88.39z"></path>
			<path class="logo-st2" d="M94.31,90.3l-0.39,1.84l-0.99,4.65l-0.71,3.37h6.95l0.49-2.3H95.6l0.23-1.07l0.11-0.52h3.8l0.45-2.08h-3.81     l0.34-1.6h4.05l0.1-0.45l0.4-1.84H94.31z"></path>
		</g>
	</g>
</g>
</svg>